<svg width="24" height="25" viewBox="0 0 24 25" fill="none" xmlns="http://www.w3.org/2000/svg">
<path d="M13.2968 9.65249C13.3417 9.61974 13.3848 9.58453 13.4258 9.54703C14.3261 8.64084 15.4305 8.22915 16.6944 8.20806C17.4179 8.19634 18.1414 8.20806 18.8344 8.45335C20.4667 9.03222 21.4757 10.1775 21.8722 11.8523C21.9563 12.233 21.9973 12.6219 21.9942 13.0116C22.0044 15.813 21.9997 18.6144 21.9989 21.4157C21.9989 21.8985 21.7072 22.1923 21.2223 22.193C20.1872 22.193 19.1522 22.193 18.1171 22.193C17.6189 22.193 17.335 21.9063 17.335 21.4032C17.335 19.1222 17.335 16.8408 17.335 14.5592C17.3368 14.3383 17.3245 14.1176 17.2982 13.8983C17.1833 12.9929 16.448 12.5859 15.8231 12.4765C15.5793 12.4306 15.3286 12.4349 15.0865 12.4891C14.8444 12.5433 14.6159 12.6463 14.415 12.7918C14.2141 12.9372 14.045 13.1221 13.9181 13.335C13.7912 13.548 13.7091 13.7846 13.6769 14.0303C13.6513 14.2114 13.6395 14.3942 13.6417 14.5772C13.6417 16.8582 13.6417 19.1396 13.6417 21.4212C13.6417 21.947 13.3937 22.1962 12.8595 22.1962C11.7072 22.1962 10.5551 22.1962 9.40323 22.1962C8.88153 22.1962 8.63672 21.9493 8.63672 21.4353V9.34236C8.63672 8.79552 8.88779 8.54632 9.43373 8.54632H12.4998C13.0199 8.54632 13.296 8.81896 13.2983 9.33376L13.2968 9.65249ZM18.0288 21.5267H18.2525C19.2028 21.5267 20.1531 21.5212 21.1034 21.5314C21.2958 21.5314 21.338 21.4712 21.338 21.2892C21.3323 18.5394 21.3305 15.7898 21.3326 13.0405C21.3353 12.8261 21.322 12.6117 21.2927 12.3992C21.058 10.8258 20.2242 9.71108 18.7264 9.11815C18.0749 8.86114 17.3905 8.86036 16.7061 8.8752C15.4672 8.90254 14.4426 9.36735 13.6464 10.3384C13.3625 10.6845 13.0066 10.9727 12.6593 11.311V9.2244H9.35082V21.5103H13.0011V21.2619C13.0011 20.2552 13.0011 19.2477 13.0011 18.2394C13.0011 16.8942 12.9855 15.5482 13.0167 14.2037C13.048 12.8851 14.1391 11.8242 15.4555 11.7781C16.5004 11.7414 17.5211 12.3672 17.8215 13.2913C17.9395 13.6822 17.9982 14.0885 17.9959 14.4967C18.0194 16.7458 18.0202 18.9948 18.0288 21.2439V21.5267Z" fill="white" stroke="white"/>
<path d="M2.32969 15.3563C2.32969 13.4721 2.32969 11.5875 2.32969 9.70278C2.32648 9.54733 2.34357 9.39213 2.38053 9.24109C2.4299 9.04366 2.54393 8.86837 2.70449 8.7431C2.86506 8.61783 3.06295 8.54977 3.2667 8.54973C4.18416 8.54192 5.10241 8.53958 6.01987 8.54973C6.26972 8.55851 6.5074 8.6597 6.68676 8.83364C6.86612 9.00759 6.97437 9.2419 6.99051 9.49108C6.9952 9.56216 6.99051 9.63403 6.99051 9.7059C6.99051 13.4877 6.98191 17.2694 6.99834 21.052C6.99834 21.6941 6.55407 22.209 5.85796 22.1957C5.05782 22.1808 4.25691 22.1957 3.45599 22.1957C2.74658 22.1957 2.325 21.7777 2.32422 21.0707C2.32578 19.1657 2.3276 17.2609 2.32969 15.3563ZM6.33038 15.3938C6.33038 13.483 6.33038 11.5719 6.33038 9.6606C6.33038 9.33874 6.20211 9.21141 5.88065 9.21141H3.47867C3.0876 9.21141 2.99999 9.29734 2.99999 9.69419C2.99999 13.4773 2.99999 17.2606 2.99999 21.0442C2.99999 21.4106 3.11419 21.5262 3.47476 21.527C4.26942 21.527 5.06356 21.527 5.85718 21.527C6.22713 21.527 6.32647 21.4215 6.32647 21.0504L6.33038 15.3938Z" fill="white" stroke="white"/>
<path d="M7.33123 5.22614C7.26787 6.82056 6.06102 7.94236 4.47639 7.88221C3.08338 7.82674 1.93988 6.52605 2.00245 5.0699C2.06268 3.65515 3.33211 2.5107 4.76109 2.55289C6.28002 2.59429 7.40475 3.9692 7.33123 5.22614ZM6.65936 5.21286C6.65936 4.10825 5.75519 3.20128 4.68365 3.22003C3.54093 3.24034 2.66806 4.10278 2.66571 5.21442C2.66571 6.36278 3.56831 7.22054 4.77751 7.21507C5.78335 7.21038 6.66327 6.27373 6.65936 5.21208V5.21286Z" fill="white" stroke="white"/>
</svg>
