<svg width="24" height="25" viewBox="0 0 24 25" fill="none" xmlns="http://www.w3.org/2000/svg">
<path d="M7.64593 3.63184H4.89474C3.8483 3.63184 3 4.48014 3 5.52657C3 14.4213 10.2106 21.6318 19.1053 21.6318C20.1517 21.6318 21 20.7835 21 19.7371V16.9859C21 16.1681 20.5021 15.4327 19.7428 15.1289L17.1071 14.0747C16.4251 13.8019 15.6483 13.9249 15.084 14.3952L14.4031 14.9626C13.6084 15.6248 12.44 15.5718 11.7085 14.8404L9.79148 12.9233C9.06004 12.1919 9.00704 11.0234 9.66925 10.2287L10.2366 9.54787C10.7069 8.98352 10.83 8.20678 10.5572 7.52472L9.50289 4.88905C9.19916 4.12974 8.46374 3.63184 7.64593 3.63184Z" stroke="#D72324" stroke-width="2" stroke-linecap="round" stroke-linejoin="round"/>
</svg>
