<svg width="24" height="25" viewBox="0 0 24 25" fill="none" xmlns="http://www.w3.org/2000/svg">
<path d="M12.01 1.63184C15.0709 1.78831 17.4797 3.21977 18.9475 6.1188C19.9013 8.00248 19.9788 9.97987 19.3915 11.9985C18.9475 13.5237 18.2656 14.9431 17.4848 16.3144C16.0673 18.8033 14.3668 21.0885 12.5121 23.2602C12.0859 23.7577 11.6597 23.7557 11.2335 23.2542C9.13754 20.7902 7.22738 18.1946 5.7221 15.3111C5.0402 13.9923 4.43246 12.633 4.1597 11.1586C3.62441 8.2604 4.43843 5.7835 6.54634 3.75624C7.79165 2.55949 9.3046 1.90265 11.0076 1.69288C11.294 1.65935 11.5864 1.65677 12.01 1.63184ZM11.8677 21.8012C11.9205 21.7419 11.9614 21.7032 11.9938 21.6594C12.9758 20.3466 13.9901 19.057 14.9285 17.7141C16.0076 16.1665 16.9367 14.533 17.6305 12.7671C17.9451 11.9676 18.1991 11.1483 18.2945 10.292C18.4599 8.81235 18.1607 7.4213 17.3569 6.17382C15.9156 3.93851 13.8409 2.91542 11.2131 3.1209C9.81835 3.22566 8.50516 3.82398 7.50525 4.81028C5.688 6.56672 5.04446 8.69886 5.6147 11.1792C5.95564 12.6476 6.59918 13.9914 7.31943 15.2982C8.36614 17.1896 9.61316 18.9418 10.9326 20.6458C11.2361 21.0326 11.5497 21.4083 11.8677 21.8012Z" fill="#0D3745" stroke="#0D3745" stroke-width="0.6"/>
<path d="M11.8769 13.6121C10.833 13.5988 9.83629 13.1718 9.10208 12.4233C8.36786 11.6748 7.95515 10.665 7.95313 9.61205C7.95112 8.55912 8.35996 7.54768 9.0913 6.79633C9.82265 6.04498 10.8177 5.61409 11.8615 5.59677C14.0444 5.58215 15.8429 7.39619 15.8404 9.60743C15.8381 10.6676 15.42 11.6839 14.6774 12.4342C13.9348 13.1846 12.928 13.608 11.8769 13.6121ZM11.882 7.03769C11.3788 7.03735 10.8868 7.1875 10.4682 7.46917C10.0496 7.75084 9.72326 8.15137 9.53035 8.62012C9.33744 9.08888 9.28666 9.6048 9.38444 10.1027C9.48221 10.6005 9.72414 11.058 10.0796 11.4171C10.4352 11.7763 10.8883 12.0211 11.3817 12.1206C11.8751 12.22 12.3867 12.1697 12.8518 11.9759C13.3168 11.7821 13.7145 11.4535 13.9944 11.0318C14.2744 10.6101 14.4241 10.1141 14.4246 9.60658C14.4241 8.92583 14.1564 8.27298 13.6798 7.79089C13.2033 7.30881 12.5569 7.03675 11.882 7.03425V7.03769Z" fill="#0D3745" stroke="#0D3745" stroke-width="0.6"/>
</svg>
