<?xml version="1.0" encoding="utf-8"?>
<!-- Generator: Adobe Illustrator 21.1.0, SVG Export Plug-In . SVG Version: 6.00 Build 0)  -->
<svg version="1.1" id="Слой_1" xmlns="http://www.w3.org/2000/svg" xmlns:xlink="http://www.w3.org/1999/xlink" x="0px" y="0px"
	 viewBox="0 0 43 43" enable-background="new 0 0 43 43" xml:space="preserve">
<path id="Фигура_6" fill="#CACACA" d="M21.5,3.6c9.9,0,17.9,8,17.9,17.9c0,9.9-8,17.9-17.9,17.9c-9.9,0-17.9-8-17.9-17.9l0,0
	C3.6,11.6,11.6,3.6,21.5,3.6z M21.5,0C9.6,0,0,9.6,0,21.5S9.6,43,21.5,43S43,33.4,43,21.5l0,0C43,9.6,33.4,0,21.5,0z M32.7,15.9
	l-2.6-2.5L19.2,24.6l-5.5-5.3l-2.5,2.6l8.1,7.7L32.7,15.9z"/>
</svg>
