<?xml version="1.0" encoding="utf-8"?>
<!-- Generator: Adobe Illustrator 21.1.0, SVG Export Plug-In . SVG Version: 6.00 Build 0)  -->
<svg version="1.1" id="Слой_1" xmlns="http://www.w3.org/2000/svg" xmlns:xlink="http://www.w3.org/1999/xlink" x="0px" y="0px"
	 viewBox="0 0 163 32.5" style="enable-background:new 0 0 163 32.5;" xml:space="preserve">
<style type="text/css">
	.st0{fill:#2AABDD;}
	.st1{fill:#FFFFFF;}
</style>
<path class="st0" d="M11.8,3.4c-9.4,5.1-14,15-10.1,22.3l0,0c3.8,7.2,14.6,9,24,4l0,0c9.4-5.1,14-15,10.1-22.3l0,0
	c-2.4-4.5-7.3-6.8-13-6.8l0,0C19.2,0.5,15.4,1.4,11.8,3.4L11.8,3.4z"/>
<path class="st0" d="M109.3,18.6c0,1.4,0.9,2.5,2.3,2.5l0,0l0,0c1.7,0,2.9-1.2,2.9-3c0-1.5-1-2.5-2.4-2.5
	C110.4,15.5,109.3,16.9,109.3,18.6L109.3,18.6z"/>
<g>
	<path class="st1" d="M47.5,17.6c0,4.3-2.6,7.7-7,7.7c-3.4,0-5.4-1.9-5.4-5.4c0-4.5,2.9-7.7,6.9-7.7C45.4,12.3,47.5,14.2,47.5,17.6z
		 M38.3,20c0,1.8,0.9,2.9,2.5,2.9c2.5,0,3.5-3.2,3.5-5.3c0-1.8-0.9-2.8-2.4-2.8C39.8,14.7,38.3,17.1,38.3,20z"/>
	<path class="st1" d="M54.4,25.4c-3.4,0-5.5-1.6-5.5-5.4c0-4.2,2.5-7.7,6.9-7.7c2.8,0,5.2,1.4,5.2,4.6h-3.2c0-1.4-0.8-2.1-2.1-2.1
		c-2.6,0-3.5,3.1-3.5,5.3c0,1.9,0.8,2.8,2.4,2.8c1.3,0,2.1-0.8,2.6-2.4h3.2C59.5,23.7,57.5,25.4,54.4,25.4z"/>
	<path class="st1" d="M66.8,14.3c1.1-1.3,2.5-2,4.1-2c2.1,0,3.5,1.3,3.5,3.1c0,0.6-0.1,1.4-0.3,2.1l-1.5,7.4h-3.3l1.4-6.9
		c0.2-0.8,0.2-1,0.2-1.5c0-1-0.6-1.6-1.6-1.6c-2.1,0-3,1.8-3.4,3.6l-1.3,6.4h-3.2l3.5-17h3.2L66.8,14.3z"/>
	<path class="st1" d="M80.7,14.4c1.1-1.3,2.5-2.1,4.2-2.1c2.1,0,3.6,1.3,3.6,3.1c0,0.6-0.1,1.3-0.3,2.2L86.7,25h-3.3l1.5-7.3
		c0.1-0.4,0.1-0.8,0.1-1.2c0-1-0.6-1.5-1.7-1.5c-1.9,0-2.9,1.6-3.2,3.4L78.7,25h-3.3l2.5-12.4H81L80.7,14.4z"/>
	<path class="st1" d="M92.7,25h-3.3l2.5-12.4h3.3L92.7,25z M95.6,10.7h-3.3l0.6-2.8h3.3L95.6,10.7z"/>
	<path class="st1" d="M100.4,17.1l4.8-4.5h4.1l-5.3,4.7l3,7.6h-3.6l-1.9-5.4l-1.8,1.6l-0.8,3.8h-3.2l3.5-17.1h3.2L100.4,17.1z"/>
</g>
<g>
	<path class="st1" d="M122.5,25.4c-3.4,0-5.5-1.6-5.5-5.4c0-4.2,2.5-7.7,6.9-7.7c2.8,0,5.2,1.4,5.2,4.6h-3.2c0-1.4-0.8-2.1-2.1-2.1
		c-2.6,0-3.5,3.1-3.5,5.3c0,1.9,0.8,2.8,2.4,2.8c1.3,0,2.1-0.8,2.6-2.4h3.2C127.6,23.7,125.6,25.4,122.5,25.4z"/>
	<path class="st1" d="M142.2,17.6c0,4.3-2.6,7.7-7,7.7c-3.4,0-5.4-1.9-5.4-5.4c0-4.5,2.9-7.7,6.9-7.7
		C140.1,12.3,142.2,14.2,142.2,17.6z M133,20c0,1.8,0.9,2.9,2.5,2.9c2.5,0,3.5-3.2,3.5-5.3c0-1.7-0.9-2.8-2.4-2.8
		C134.5,14.7,133,17.1,133,20z"/>
	<path class="st1" d="M148.3,14.4c1.1-1.2,2.4-2.1,4.1-2.1c1.7,0,2.7,0.7,3,2.2c1.2-1.3,2.3-2.1,4.1-2.1c2.1,0,3.5,1.2,3.5,3
		c0,0.6-0.1,1.4-0.3,2.5l-1.4,7.1H158l1.4-6.9c0.2-0.9,0.2-1.2,0.2-1.7c0-0.8-0.6-1.3-1.5-1.3c-2,0-2.7,1.9-3,3.6l-1.3,6.3h-3.3
		l1.4-7c0.1-0.6,0.3-1.1,0.3-1.7c0-0.8-0.6-1.3-1.4-1.3c-1.9,0-2.8,1.7-3.1,3.4l-1.4,6.6H143l2.5-12.4h3.1L148.3,14.4z"/>
</g>
<path class="st1" d="M20.4,7.2H8.3C8.1,7.2,8,7.3,8,7.5l0,0l-0.6,3.2c0,0.1,0,0.2,0.1,0.3l0,0c0.1,0.1,0.2,0.1,0.3,0.1l0,0h6.5
	L4.6,22.7c0,0-0.1,0.1-0.1,0.2l0,0l-0.4,2.2c0,0.1,0,0.2,0.1,0.3l0,0c0.1,0.1,0.2,0.1,0.3,0.1l0,0h13c0.2,0,0.3-0.1,0.3-0.3l0,0
	l0.6-3.2c0-0.1,0-0.2-0.1-0.3l0,0c-0.1-0.1-0.2-0.1-0.3-0.1l0,0h-7.2l9.6-11.4c0,0,0.1-0.1,0.1-0.2l0,0l0.4-2.3c0-0.1,0-0.2-0.1-0.3
	l0,0C20.6,7.2,20.5,7.2,20.4,7.2z"/>
<path class="st1" d="M26.2,24.2c0.7-0.6,0.6-0.5,1-1l0,0c0,0.5-0.1,1-0.1,1.4l0,0c0,0.1,0,0.2,0.1,0.2l0,0c0.1,0.1,0.1,0.1,0.2,0.1
	l0,0h3.4c0.1,0,0.2,0,0.2-0.1l0,0c0.1-0.1,0.1-0.2,0.1-0.2l0,0c0-1.5,0.2-4,0.5-5.6l0,0l1.3-6.7c0-0.2-0.1-0.3-0.2-0.4l0,0
	c-1.2-0.4-2.9-0.6-4.3-0.6c-0.9,0-1.6,0.1-2.4,0.2l-0.6,0.2c-4.2,2-6.6,5.1-6.6,8.9c0,2.8,1.7,4.8,4.2,4.8l0,0
	c0.8,0,1.7-0.2,2.6-0.8L26.2,24.2z M25.7,21.4c-0.5,0.3-0.7,0.3-1,0.3l0,0c-1,0-1.2-1.1-1.2-1.8l0,0c0-1.7,1.1-3.6,2.2-4.4l0.2-0.1
	c0.5-0.3,1-0.5,1.6-0.5l0,0c0.2,0,0.4,0,0.6,0l0,0l-0.5,2.6c-0.3,1.9-0.9,3.1-1.6,3.7L25.7,21.4z"/>
<g>
	<path class="st1" d="M35.4,30.4c0-1.2,0.9-2.2,2.2-2.2c0.8,0,1.3,0.3,1.7,0.7l-0.6,0.6c-0.3-0.3-0.6-0.5-1.1-0.5
		c-0.7,0-1.2,0.6-1.2,1.3c0,0.7,0.5,1.3,1.2,1.3c0.5,0,0.8-0.2,1.1-0.5l0.6,0.6c-0.4,0.5-0.9,0.7-1.8,0.7
		C36.4,32.6,35.4,31.6,35.4,30.4z"/>
	<path class="st1" d="M41.1,29.1h-1.3v-0.9h3.5v0.9H42v3.4h-0.9V29.1z"/>
	<path class="st1" d="M46.9,28.2h1l-1.6,3.3c-0.4,0.7-0.8,1-1.4,1c-0.4,0-0.7-0.1-0.9-0.3l0.4-0.7c0.2,0.1,0.3,0.1,0.5,0.1
		s0.4-0.1,0.5-0.3l-1.7-3.2h1.1l1.2,2.3L46.9,28.2z"/>
	<path class="st1" d="M47.9,31.7h0.4c0.3-0.7,0.5-1.5,0.5-2.9v-0.5h3.1v3.4h0.5l-0.1,1.7h-0.8v-0.9h-2.7l-0.1,0.9h-0.9L47.9,31.7
		L47.9,31.7z M49.7,29.1v0.4c0,0.9-0.1,1.6-0.4,2.1H51V29h-1.3V29.1z"/>
	<path class="st1" d="M53.1,28.2h3.2V29H54v0.9h2v0.8h-2v0.9h2.3v0.8H53L53.1,28.2L53.1,28.2z"/>
	<path class="st1" d="M57.2,28.2h0.9v1.7h1.7v-1.7h0.9v4.3h-0.9v-1.7h-1.7v1.7h-0.9V28.2z"/>
	<path class="st1" d="M64.3,30.9c-0.3,0.1-0.7,0.3-1.1,0.3c-0.9,0-1.4-0.4-1.4-1.4v-1.6h0.9v1.3c0,0.5,0.2,0.8,0.7,0.8
		c0.4,0,0.7-0.1,0.9-0.3v-1.8h0.9v4.3h-0.9V30.9z"/>
	<path class="st1" d="M66.3,28.2h3.2V29h-2.3v0.9h2v0.8h-2v0.9h2.3v0.8h-3.3v-4.2H66.3z"/>
	<path class="st1" d="M70.1,30.4c0-1.2,0.9-2.2,2.2-2.2c0.8,0,1.3,0.3,1.7,0.7l-0.6,0.6c-0.3-0.3-0.6-0.5-1.1-0.5
		c-0.7,0-1.2,0.6-1.2,1.3c0,0.7,0.5,1.3,1.2,1.3c0.5,0,0.8-0.2,1.1-0.5l0.6,0.6c-0.4,0.5-0.9,0.7-1.8,0.7
		C71,32.6,70.1,31.6,70.1,30.4z"/>
	<path class="st1" d="M74.8,28.2h0.9v1.9l1.7-1.9h1.1L76.9,30l1.8,2.5h-1.1l-1.3-1.8l-0.5,0.5v1.3h-0.9L74.8,28.2L74.8,28.2z"/>
	<path class="st1" d="M83,32.5h-1v-2.8l-1.9,2.8h-0.9v-4.3h0.9V31l1.9-2.8h1V32.5z"/>
	<path class="st1" d="M87.7,32.5h-0.9v-2.8l-1.9,2.8H84v-4.3h0.9V31l1.9-2.8h0.9C87.7,28.2,87.7,32.5,87.7,32.5z M84.8,27l0.5-0.1
		c0.1,0.3,0.2,0.4,0.5,0.4s0.4-0.2,0.5-0.4l0.5,0.1c-0.1,0.6-0.5,0.9-1,0.9S84.9,27.6,84.8,27z"/>
	<path class="st1" d="M90.4,30.4c0-1.2,0.9-2.2,2.2-2.2c0.8,0,1.3,0.3,1.7,0.7l-0.6,0.6c-0.3-0.3-0.6-0.5-1.1-0.5
		c-0.7,0-1.2,0.6-1.2,1.3c0,0.7,0.5,1.3,1.2,1.3c0.5,0,0.8-0.2,1.1-0.5l0.6,0.6c-0.4,0.5-0.9,0.7-1.8,0.7
		C91.3,32.6,90.4,31.6,90.4,30.4z"/>
	<path class="st1" d="M95.1,28.2h3.2V29H96v0.9h2v0.8h-2v0.9h2.3v0.8H95L95.1,28.2L95.1,28.2z"/>
	<path class="st1" d="M99.2,28.2h1.8c1,0,1.6,0.6,1.6,1.5c0,1-0.8,1.5-1.7,1.5h-0.7v1.3h-0.9v-4.3H99.2z M100.8,30.4
		c0.5,0,0.7-0.3,0.7-0.7c0-0.4-0.3-0.6-0.8-0.6H100v1.3C100,30.4,100.8,30.4,100.8,30.4z"/>
	<path class="st1" d="M103.2,28.2h2c0.5,0,0.9,0.1,1.1,0.4c0.2,0.2,0.3,0.4,0.3,0.7c0,0.5-0.3,0.8-0.6,0.9c0.5,0.2,0.8,0.5,0.8,1.1
		c0,0.8-0.6,1.2-1.6,1.2h-2C103.2,32.5,103.2,28.2,103.2,28.2z M105,30c0.4,0,0.7-0.1,0.7-0.5c0-0.3-0.2-0.4-0.6-0.4h-0.9V30H105z
		 M105.3,31.7c0.4,0,0.7-0.1,0.7-0.5c0-0.3-0.2-0.5-0.7-0.5h-1.1v0.9h1.1V31.7z"/>
	<path class="st1" d="M111.3,32.5h-0.9v-2.8l-1.9,2.8h-0.9v-4.3h0.9V31l1.9-2.8h0.9V32.5z"/>
	<path class="st1" d="M112.2,30.4c0-1.2,0.9-2.2,2.2-2.2c0.8,0,1.3,0.3,1.7,0.7l-0.6,0.6c-0.3-0.3-0.6-0.5-1.1-0.5
		c-0.7,0-1.2,0.6-1.2,1.3c0,0.7,0.5,1.3,1.2,1.3c0.5,0,0.8-0.2,1.1-0.5l0.6,0.6c-0.4,0.5-0.9,0.7-1.8,0.7
		C113.1,32.6,112.2,31.6,112.2,30.4z"/>
	<path class="st1" d="M118.6,28.2h0.9l1.7,2.6v-2.6h1v4.3h-0.8l-1.7-2.7v2.7h-1L118.6,28.2L118.6,28.2z M122.5,30
		c0-0.5,0.4-0.9,0.9-0.9s0.9,0.4,0.9,0.9s-0.4,0.9-0.9,0.9S122.5,30.5,122.5,30z M122.6,31.2h1.6v0.6h-1.6V31.2z M123.8,30
		c0-0.2-0.2-0.5-0.4-0.5c-0.2,0-0.4,0.2-0.4,0.4c0,0.2,0.2,0.5,0.4,0.5C123.7,30.4,123.8,30.2,123.8,30z"/>
	<path class="st1" d="M125.8,29.2l-0.7,0.2l-0.2-0.8l1.2-0.4h0.6v4.3h-0.9V29.2z"/>
	<path class="st1" d="M129.6,28.2h2c0.5,0,0.9,0.1,1.1,0.4c0.2,0.2,0.3,0.4,0.3,0.7c0,0.5-0.3,0.8-0.6,0.9c0.5,0.2,0.8,0.5,0.8,1.1
		c0,0.8-0.6,1.2-1.6,1.2h-2V28.2z M131.4,30c0.4,0,0.7-0.1,0.7-0.5c0-0.3-0.2-0.4-0.6-0.4h-0.9V30H131.4z M131.7,31.7
		c0.4,0,0.7-0.1,0.7-0.5c0-0.3-0.2-0.5-0.7-0.5h-1.1v0.9h1.1V31.7z"/>
	<path class="st1" d="M135.9,28.2h1.8c1,0,1.6,0.6,1.6,1.5c0,1-0.8,1.5-1.7,1.5h-0.7v1.3H136v-4.3H135.9z M137.6,30.4
		c0.5,0,0.7-0.3,0.7-0.7c0-0.4-0.3-0.6-0.8-0.6h-0.7v1.3C136.8,30.4,137.6,30.4,137.6,30.4z"/>
	<path class="st1" d="M139.8,30.4c0-1.2,1-2.2,2.3-2.2s2.3,1,2.3,2.2s-1,2.2-2.3,2.2C140.7,32.6,139.8,31.6,139.8,30.4z M143.3,30.4
		c0-0.7-0.5-1.3-1.3-1.3s-1.3,0.6-1.3,1.3c0,0.7,0.5,1.3,1.3,1.3S143.3,31.1,143.3,30.4z"/>
	<path class="st1" d="M145,30.4c0-1.2,0.9-2.2,2.2-2.2c0.8,0,1.3,0.3,1.7,0.7l-0.6,0.6c-0.3-0.3-0.6-0.5-1.1-0.5
		c-0.7,0-1.2,0.6-1.2,1.3c0,0.7,0.5,1.3,1.2,1.3c0.5,0,0.8-0.2,1.1-0.5l0.6,0.6c-0.4,0.5-0.9,0.7-1.8,0.7
		C145.9,32.6,145,31.6,145,30.4z"/>
	<path class="st1" d="M149.4,30.4c0-1.2,0.9-2.2,2.2-2.2c0.8,0,1.3,0.3,1.7,0.7l-0.6,0.6c-0.3-0.3-0.6-0.5-1.1-0.5
		c-0.7,0-1.2,0.6-1.2,1.3c0,0.7,0.5,1.3,1.2,1.3c0.5,0,0.8-0.2,1.1-0.5l0.6,0.6c-0.4,0.5-0.9,0.7-1.8,0.7
		C150.3,32.6,149.4,31.6,149.4,30.4z"/>
	<path class="st1" d="M157.8,32.5h-0.9v-2.8l-1.9,2.8h-0.9v-4.3h0.9V31l1.9-2.8h0.9V32.5z"/>
	<path class="st1" d="M162.5,32.5h-0.9v-2.8l-1.9,2.8h-0.9v-4.3h0.9V31l1.9-2.8h0.9V32.5z"/>
</g>
</svg>
