<svg xmlns="http://www.w3.org/2000/svg" viewBox="0 0 800 600" width="800" height="600" role="img" aria-label="Сборный букет — несколько цветов">
  <defs>
    <linearGradient id="bgComposed" x1="0" y1="0" x2="1" y2="1">
      <stop offset="0" stop-color="#f7efe6"/>
      <stop offset="1" stop-color="#eedbc8"/>
    </linearGradient>
  </defs>
  <rect width="800" height="600" fill="url(#bgComposed)"/>
  <g fill="none" stroke="#7fae6f" stroke-width="6" stroke-linecap="round">
    <path d="M400 560 C300 470 250 380 250 280"/>
    <path d="M400 560 C400 460 400 380 400 260"/>
    <path d="M400 560 C500 470 550 380 550 280"/>
  </g>
  <path d="M330 540 L470 540 L440 585 L360 585 Z" fill="#e0b49a" stroke="#4a3a30" stroke-width="3"/>
  <g stroke="#4a3a30" stroke-width="3">
    <g transform="translate(250 260)">
      <circle r="24" fill="#cf9a73"/>
      <g fill="#e0b49a"><circle cx="0" cy="-40" r="20"/><circle cx="38" cy="-12" r="20"/><circle cx="24" cy="32" r="20"/><circle cx="-24" cy="32" r="20"/><circle cx="-38" cy="-12" r="20"/></g>
      <circle r="20" fill="#c8a36a"/>
    </g>
    <g transform="translate(400 240)">
      <circle r="28" fill="#c8a36a"/>
      <g fill="#cf9a73"><circle cx="0" cy="-46" r="22"/><circle cx="44" cy="-14" r="22"/><circle cx="27" cy="37" r="22"/><circle cx="-27" cy="37" r="22"/><circle cx="-44" cy="-14" r="22"/></g>
      <circle r="22" fill="#e0b49a"/>
    </g>
    <g transform="translate(550 260)">
      <circle r="24" fill="#cf9a73"/>
      <g fill="#e0b49a"><circle cx="0" cy="-40" r="20"/><circle cx="38" cy="-12" r="20"/><circle cx="24" cy="32" r="20"/><circle cx="-24" cy="32" r="20"/><circle cx="-38" cy="-12" r="20"/></g>
      <circle r="20" fill="#c8a36a"/>
    </g>
  </g>
</svg>
