<svg xmlns="http://www.w3.org/2000/svg" viewBox="0 0 800 600" width="800" height="600" role="img" aria-label="Моно букет — один цветок">
  <defs>
    <linearGradient id="bgMono" x1="0" y1="0" x2="1" y2="1">
      <stop offset="0" stop-color="#f7efe6"/>
      <stop offset="1" stop-color="#eedbc8"/>
    </linearGradient>
  </defs>
  <rect width="800" height="600" fill="url(#bgMono)"/>
  <g fill="none" stroke="#7fae6f" stroke-width="6" stroke-linecap="round">
    <path d="M400 560 C398 460 402 380 400 300"/>
    <path d="M400 430 C360 410 340 380 336 344"/>
    <path d="M400 400 C440 384 462 356 468 322"/>
  </g>
  <g stroke="#4a3a30" stroke-width="3">
    <ellipse cx="336" cy="344" rx="26" ry="12" transform="rotate(-30 336 344)" fill="#7fae6f" opacity="0.5"/>
    <ellipse cx="468" cy="322" rx="26" ry="12" transform="rotate(30 468 322)" fill="#7fae6f" opacity="0.5"/>
  </g>
  <g transform="translate(400 250)" stroke="#4a3a30" stroke-width="3">
    <circle r="34" fill="#c8a36a"/>
    <g fill="#e0b49a">
      <ellipse cx="0" cy="-70" rx="30" ry="52"/>
      <ellipse cx="0" cy="70" rx="30" ry="52"/>
      <ellipse cx="-70" cy="0" rx="52" ry="30"/>
      <ellipse cx="70" cy="0" rx="52" ry="30"/>
    </g>
    <g fill="#cf9a73">
      <ellipse cx="-50" cy="-50" rx="30" ry="48" transform="rotate(-45 -50 -50)"/>
      <ellipse cx="50" cy="-50" rx="30" ry="48" transform="rotate(45 50 -50)"/>
      <ellipse cx="-50" cy="50" rx="30" ry="48" transform="rotate(45 -50 50)"/>
      <ellipse cx="50" cy="50" rx="30" ry="48" transform="rotate(-45 50 50)"/>
    </g>
    <circle r="34" fill="#c8a36a"/>
  </g>
</svg>
